<svg width="21" height="22" viewBox="0 0 21 22" fill="none" xmlns="http://www.w3.org/2000/svg">
<path d="M17.8325 3.88098C17.4225 3.47034 16.705 3.47034 16.1925 3.88098L13.7325 6.34485C12.6498 5.94231 11.5049 5.73381 10.35 5.72888C6.455 5.83154 2.97 7.88476 1.125 11.2726C1.33 11.6832 1.6375 12.0939 1.945 12.5045C2.765 13.6338 3.79 14.5577 4.9175 15.2764L3.175 17.0216C2.765 17.4322 2.6625 18.1509 3.175 18.6642C3.585 19.0748 4.3025 19.1775 4.815 18.6642L17.8325 5.52356C18.2425 5.01025 18.2425 4.29163 17.8325 3.88098ZM6.9675 13.1205L5.635 14.4551C4.405 13.7364 3.2775 12.7098 2.4575 11.4779C3.6875 9.73266 5.3275 8.50073 7.275 7.88476C5.9425 9.32202 5.84 11.5806 6.9675 13.1205ZM10.4525 9.73266C9.94 9.21936 10.0425 8.39807 10.555 7.88476C11.0675 7.47412 11.785 7.47412 12.2975 7.88476L10.4525 9.73266ZM18.8575 10.246C18.345 9.52734 17.73 8.80871 17.0125 8.29541L15.9875 9.32202C16.8075 9.93799 17.525 10.6566 18.14 11.5806C16.3975 14.2498 13.425 15.8923 10.2475 15.8923H9.4275L8.4025 16.9189C9.12 16.8163 9.735 16.9189 10.35 16.9189C13.7325 16.9189 16.91 15.2764 18.8575 12.5045C19.165 12.0939 19.37 11.6832 19.6775 11.2726C19.37 10.9646 19.165 10.554 18.8575 10.246ZM14.45 10.7593L10.35 14.8657C12.605 14.8657 14.45 13.0178 14.45 10.7593Z" fill="black"/>
</svg>
