<svg width="32" height="32" viewBox="0 0 32 32" fill="none" xmlns="http://www.w3.org/2000/svg">
<path d="M16 7.78003L15.687 7.87503L3.18697 12.063L0.344971 13L1.99997 13.53V22.28C1.40297 22.627 0.999971 23.26 0.999971 24C0.999971 24.5305 1.21068 25.0392 1.58576 25.4142C1.96083 25.7893 2.46954 26 2.99997 26C3.5304 26 4.03911 25.7893 4.41418 25.4142C4.78926 25.0392 4.99997 24.5305 4.99997 24C4.99997 23.26 4.59697 22.627 3.99997 22.28V14.22L5.99997 14.875V20C5.99997 20.82 6.49997 21.5 7.09397 21.97C7.68797 22.437 8.42597 22.767 9.31197 23.063C11.086 23.653 13.424 24 16 24C18.576 24 20.914 23.654 22.688 23.062C23.574 22.767 24.312 22.437 24.906 21.969C25.5 21.5 26 20.82 26 20V14.875L28.813 13.937L31.655 13L28.812 12.062L16.312 7.87503L16 7.78003ZM16 9.87503L25.375 13L16 16.125L6.62497 13L16 9.87503ZM7.99997 15.563L15.688 18.125L16 18.219L16.313 18.124L24 15.562V20C24 20.01 24.004 20.126 23.687 20.375C23.371 20.625 22.804 20.94 22.062 21.188C20.58 21.681 18.395 22 16 22C13.605 22 11.42 21.682 9.93697 21.187C9.19697 20.94 8.62897 20.624 8.31297 20.375C7.99497 20.125 7.99997 20.01 7.99997 20V15.562V15.563Z" fill="white"/>
</svg>
