<svg width="32" height="32" viewBox="0 0 32 32" fill="none" xmlns="http://www.w3.org/2000/svg">
<path d="M4 6V8H26V24H12V26H30V24H28V6H4ZM8.002 9C6.94208 9.00369 5.9266 9.42623 5.17694 10.1755C4.42727 10.9248 4.00422 11.9401 4 13C4 15.199 5.804 17 8.002 17C9.06138 16.9958 10.0761 16.5729 10.8251 15.8236C11.574 15.0744 11.9963 14.0594 12 13C12 10.803 10.198 9 8.002 9ZM14 10V12H19V10H14ZM21 10V12H24V10H21ZM8.002 11C9.116 11 10 11.883 10 13C10 14.12 9.117 15 8.002 15C6.882 15 6 14.12 6 13C6 11.883 6.883 11 8.002 11V11ZM14 14V16H24V14H14ZM4 18V26H6V20H9V26H11V20.658L13.064 21.75C13.649 22.06 14.352 22.059 14.936 21.75V21.752L18.466 19.885L17.533 18.115L14.002 19.982L10.906 18.348C10.4739 18.1197 9.99268 18.0003 9.504 18H4Z" fill="white"/>
</svg>
